<?xml version="1.0" encoding="utf-8"?>
<!-- Svg Vector Icons : http://www.onlinewebfonts.com/icon -->
<!DOCTYPE svg PUBLIC "-//W3C//DTD SVG 1.1//EN" "http://www.w3.org/Graphics/SVG/1.1/DTD/svg11.dtd">
<svg version="1.1" xmlns="http://www.w3.org/2000/svg" xmlns:xlink="http://www.w3.org/1999/xlink" x="0px" y="0px" viewBox="0 0 1000 1000" enable-background="new 0 0 1000 1000" fill="black" xml:space="preserve">
<metadata> Svg Vector Icons : http://www.onlinewebfonts.com/icon </metadata>
<g><g><g id="_x33__1_"><g><path d="M108,206h784c54.1,0,98-43.9,98-98c0-54.1-43.9-98-98-98H108c-54.1,0-98,43.9-98,98C10,162.1,53.9,206,108,206z M892,402H108c-54.1,0-98,43.9-98,98c0,54.1,43.9,98,98,98h784c54.1,0,98-43.9,98-98C990,445.9,946.1,402,892,402z M892,794H108c-54.1,0-98,43.9-98,98c0,54.1,43.9,98,98,98h784c54.1,0,98-43.9,98-98C990,837.9,946.1,794,892,794z"/></g></g></g><g></g><g></g><g></g><g></g><g></g><g></g><g></g><g></g><g></g><g></g><g></g><g></g><g></g><g></g><g></g></g>
</svg>